<svg version="1.1" viewBox="0.0 0.0 48.0 48.0" fill="none" stroke="none" stroke-linecap="square" stroke-miterlimit="10" xmlns:xlink="http://www.w3.org/1999/xlink" xmlns="http://www.w3.org/2000/svg"><clipPath id="p.0"><path d="m0 0l48.0 0l0 48.0l-48.0 0l0 -48.0z" clip-rule="nonzero"/></clipPath><g clip-path="url(#p.0)"><path fill="#ffffff" d="m0 0l48.0 0l0 48.0l-48.0 0z" fill-rule="evenodd"/><path fill="#ffffff" d="m110.780426 45.733505l-16.872437 -19.480959l16.872437 -19.48096z" fill-rule="evenodd"/><path stroke="#000000" stroke-width="4.0" stroke-linejoin="round" stroke-linecap="butt" d="m110.780426 45.733505l-16.872437 -19.480959l16.872437 -19.48096z" fill-rule="evenodd"/><path fill="#ffffff" d="m105.595566 4.773843l13.127525 0l0 45.086212l-13.127525 0z" fill-rule="evenodd"/><path fill="#ffffff" d="m8.094488 11.713287c0 -1.8087845 1.4663095 -3.275094 3.275094 -3.275094l24.693905 0c0.8686104 0 1.7016411 0.34505367 2.3158417 0.95925236c0.6142006 0.61419964 0.9592514 1.4472322 0.9592514 2.3158417l0 24.126976c0 1.8087845 -1.4663086 3.275097 -3.275093 3.275097l-24.693905 0c-1.8087845 0 -3.275094 -1.4663124 -3.275094 -3.275097z" fill-rule="evenodd"/><path stroke="#000000" stroke-width="3.774278215223097" stroke-linejoin="round" stroke-linecap="butt" d="m8.094488 11.713287c0 -1.8087845 1.4663095 -3.275094 3.275094 -3.275094l24.693905 0c0.8686104 0 1.7016411 0.34505367 2.3158417 0.95925236c0.6142006 0.61419964 0.9592514 1.4472322 0.9592514 2.3158417l0 24.126976c0 1.8087845 -1.4663086 3.275097 -3.275093 3.275097l-24.693905 0c-1.8087845 0 -3.275094 -1.4663124 -3.275094 -3.275097z" fill-rule="evenodd"/><path fill="#ffffff" d="m21.377953 25.262463l20.818897 0l0 16.472443l-20.818897 0z" fill-rule="evenodd"/><path fill="#ffffff" d="m21.354958 25.026697l17.92126 0l-17.92126 13.984251z" fill-rule="evenodd"/><path stroke="#000000" stroke-width="3.774278215223097" stroke-linejoin="round" stroke-linecap="butt" d="m21.354958 25.026697l17.92126 0l-17.92126 13.984251z" fill-rule="evenodd"/></g></svg>