<svg version="1.1" viewBox="0.0 0.0 48.0 48.0" fill="none" stroke="none" stroke-linecap="square" stroke-miterlimit="10" xmlns:xlink="http://www.w3.org/1999/xlink" xmlns="http://www.w3.org/2000/svg"><clipPath id="p.0"><path d="m0 0l48.0 0l0 48.0l-48.0 0l0 -48.0z" clip-rule="nonzero"/></clipPath><g clip-path="url(#p.0)"><path fill="#ffffff" d="m0 0l48.0 0l0 48.0l-48.0 0z" fill-rule="evenodd"/><path fill="#ffffff" d="m110.780426 45.733505l-16.872437 -19.480959l16.872437 -19.48096z" fill-rule="evenodd"/><path stroke="#000000" stroke-width="4.0" stroke-linejoin="round" stroke-linecap="butt" d="m110.780426 45.733505l-16.872437 -19.480959l16.872437 -19.48096z" fill-rule="evenodd"/><path fill="#ffffff" d="m105.595566 4.773843l13.127525 0l0 45.086212l-13.127525 0z" fill-rule="evenodd"/><path fill="#ffffff" d="m57.406826 12.65292c0 -1.8087845 1.4663086 -3.275094 3.275093 -3.275094l24.693905 0c0.86860657 0 1.7016449 0.34505367 2.3158417 0.9592533c0.6141968 0.6141987 0.9592514 1.4472322 0.9592514 2.3158407l0 24.126976c0 1.8087845 -1.4663086 3.275097 -3.275093 3.275097l-24.693905 0c-1.8087845 0 -3.275093 -1.4663124 -3.275093 -3.275097z" fill-rule="evenodd"/><path stroke="#000000" stroke-width="3.774278215223097" stroke-linejoin="round" stroke-linecap="butt" d="m57.406826 12.65292c0 -1.8087845 1.4663086 -3.275094 3.275093 -3.275094l24.693905 0c0.86860657 0 1.7016449 0.34505367 2.3158417 0.9592533c0.6141968 0.6141987 0.9592514 1.4472322 0.9592514 2.3158407l0 24.126976c0 1.8087845 -1.4663086 3.275097 -3.275093 3.275097l-24.693905 0c-1.8087845 0 -3.275093 -1.4663124 -3.275093 -3.275097z" fill-rule="evenodd"/><path fill="#ffffff" d="m70.69029 26.202095l20.818893 0l0 16.472443l-20.818893 0z" fill-rule="evenodd"/><path fill="#ffffff" d="m70.6673 25.96633l17.921257 0l-17.921257 13.984251z" fill-rule="evenodd"/><path stroke="#000000" stroke-width="3.774278215223097" stroke-linejoin="round" stroke-linecap="butt" d="m70.6673 25.96633l17.921257 0l-17.921257 13.984251z" fill-rule="evenodd"/><path fill="#ffffff" d="m6.5059013 23.996037c0 -7.1940956 7.825801 -13.026062 17.479416 -13.026062c9.653614 0 17.479416 5.8319664 17.479416 13.026062c0 7.1940956 -7.825802 13.026062 -17.479416 13.026062c-9.653615 0 -17.479416 -5.8319664 -17.479416 -13.026062z" fill-rule="evenodd"/><path stroke="#000000" stroke-width="3.0" stroke-linejoin="round" stroke-linecap="butt" d="m6.5059013 23.996037c0 -7.1940956 7.825801 -13.026062 17.479416 -13.026062c9.653614 0 17.479416 5.8319664 17.479416 13.026062c0 7.1940956 -7.825802 13.026062 -17.479416 13.026062c-9.653615 0 -17.479416 -5.8319664 -17.479416 -13.026062z" fill-rule="evenodd"/><path fill="#000000" d="m20.331543 23.999878c0 -2.0179234 1.6358509 -3.6537743 3.6537743 -3.6537743c0.9690418 0 1.8983936 0.38495064 2.5836086 1.0701656c0.685215 0.6852169 1.0701656 1.6145687 1.0701656 2.5836086c0 2.0179253 -1.6358509 3.6537762 -3.6537743 3.6537762c-2.0179234 0 -3.6537743 -1.6358509 -3.6537743 -3.6537762z" fill-rule="evenodd"/><path stroke="#000000" stroke-width="3.0" stroke-linejoin="round" stroke-linecap="butt" d="m20.331543 23.999878c0 -2.0179234 1.6358509 -3.6537743 3.6537743 -3.6537743c0.9690418 0 1.8983936 0.38495064 2.5836086 1.0701656c0.685215 0.6852169 1.0701656 1.6145687 1.0701656 2.5836086c0 2.0179253 -1.6358509 3.6537762 -3.6537743 3.6537762c-2.0179234 0 -3.6537743 -1.6358509 -3.6537743 -3.6537762z" fill-rule="evenodd"/></g></svg>